<mxfile host="app.diagrams.net" agent="Mozilla/5.0 (Windows NT 10.0; Win64; x64) AppleWebKit/537.36 (KHTML, like Gecko) Chrome/129.0.0.0 Safari/537.36" version="24.7.17">
  <diagram name="第 1 页" id="787F-ueY0vVpr-FbqrY-">
    <mxGraphModel dx="1405" dy="1742" grid="1" gridSize="10" guides="1" tooltips="1" connect="1" arrows="1" fold="1" page="1" pageScale="1" pageWidth="1169" pageHeight="827" math="0" shadow="0">
      <root>
        <mxCell id="0" />
        <mxCell id="1" parent="0" />
        <mxCell id="H8-hDgxQh_Dao61tSRxa-82" value="" style="rounded=0;whiteSpace=wrap;html=1;" vertex="1" parent="1">
          <mxGeometry x="450" y="1050" width="120" height="160" as="geometry" />
        </mxCell>
        <mxCell id="H8-hDgxQh_Dao61tSRxa-1" value="" style="rounded=0;whiteSpace=wrap;html=1;" vertex="1" parent="1">
          <mxGeometry x="240" y="262" width="120" height="570" as="geometry" />
        </mxCell>
        <mxCell id="H8-hDgxQh_Dao61tSRxa-4" value="stext=skernel=0x80200000" style="text;html=1;align=center;verticalAlign=middle;resizable=0;points=[];autosize=1;strokeColor=none;fillColor=none;" vertex="1" parent="1">
          <mxGeometry x="70" y="250" width="170" height="30" as="geometry" />
        </mxCell>
        <mxCell id="H8-hDgxQh_Dao61tSRxa-5" value="srodata=etext" style="text;html=1;align=center;verticalAlign=middle;resizable=0;points=[];autosize=1;strokeColor=none;fillColor=none;" vertex="1" parent="1">
          <mxGeometry x="130" y="310" width="100" height="30" as="geometry" />
        </mxCell>
        <mxCell id="H8-hDgxQh_Dao61tSRxa-6" value="sdata=erodata" style="text;html=1;align=center;verticalAlign=middle;resizable=0;points=[];autosize=1;strokeColor=none;fillColor=none;" vertex="1" parent="1">
          <mxGeometry x="130" y="380" width="100" height="30" as="geometry" />
        </mxCell>
        <mxCell id="H8-hDgxQh_Dao61tSRxa-7" value="edata" style="text;html=1;align=center;verticalAlign=middle;resizable=0;points=[];autosize=1;strokeColor=none;fillColor=none;" vertex="1" parent="1">
          <mxGeometry x="155" y="462" width="50" height="30" as="geometry" />
        </mxCell>
        <mxCell id="H8-hDgxQh_Dao61tSRxa-8" value="sbss" style="text;html=1;align=center;verticalAlign=middle;resizable=0;points=[];autosize=1;strokeColor=none;fillColor=none;" vertex="1" parent="1">
          <mxGeometry x="155" y="530" width="50" height="30" as="geometry" />
        </mxCell>
        <mxCell id="H8-hDgxQh_Dao61tSRxa-9" value="ekernel=ebss" style="text;html=1;align=center;verticalAlign=middle;resizable=0;points=[];autosize=1;strokeColor=none;fillColor=none;" vertex="1" parent="1">
          <mxGeometry x="130" y="600" width="100" height="30" as="geometry" />
        </mxCell>
        <mxCell id="H8-hDgxQh_Dao61tSRxa-12" value="" style="endArrow=none;html=1;rounded=0;exitX=-0.001;exitY=0.112;exitDx=0;exitDy=0;exitPerimeter=0;entryX=1;entryY=0.113;entryDx=0;entryDy=0;entryPerimeter=0;" edge="1" parent="1" source="H8-hDgxQh_Dao61tSRxa-1" target="H8-hDgxQh_Dao61tSRxa-1">
          <mxGeometry width="50" height="50" relative="1" as="geometry">
            <mxPoint x="350" y="392" as="sourcePoint" />
            <mxPoint x="400" y="342" as="targetPoint" />
          </mxGeometry>
        </mxCell>
        <mxCell id="H8-hDgxQh_Dao61tSRxa-13" value="" style="endArrow=none;html=1;rounded=0;exitX=-0.001;exitY=0.239;exitDx=0;exitDy=0;exitPerimeter=0;entryX=0.991;entryY=0.239;entryDx=0;entryDy=0;entryPerimeter=0;" edge="1" parent="1" source="H8-hDgxQh_Dao61tSRxa-1" target="H8-hDgxQh_Dao61tSRxa-1">
          <mxGeometry width="50" height="50" relative="1" as="geometry">
            <mxPoint x="350" y="392" as="sourcePoint" />
            <mxPoint x="400" y="342" as="targetPoint" />
          </mxGeometry>
        </mxCell>
        <mxCell id="H8-hDgxQh_Dao61tSRxa-14" value="" style="endArrow=none;html=1;rounded=0;exitX=-0.006;exitY=0.382;exitDx=0;exitDy=0;exitPerimeter=0;entryX=1.007;entryY=0.38;entryDx=0;entryDy=0;entryPerimeter=0;" edge="1" parent="1" source="H8-hDgxQh_Dao61tSRxa-1" target="H8-hDgxQh_Dao61tSRxa-1">
          <mxGeometry width="50" height="50" relative="1" as="geometry">
            <mxPoint x="350" y="442" as="sourcePoint" />
            <mxPoint x="400" y="392" as="targetPoint" />
          </mxGeometry>
        </mxCell>
        <mxCell id="H8-hDgxQh_Dao61tSRxa-15" value="" style="endArrow=none;html=1;rounded=0;exitX=0;exitY=0.5;exitDx=0;exitDy=0;entryX=1;entryY=0.5;entryDx=0;entryDy=0;" edge="1" parent="1" source="H8-hDgxQh_Dao61tSRxa-1" target="H8-hDgxQh_Dao61tSRxa-1">
          <mxGeometry width="50" height="50" relative="1" as="geometry">
            <mxPoint x="350" y="542" as="sourcePoint" />
            <mxPoint x="400" y="492" as="targetPoint" />
          </mxGeometry>
        </mxCell>
        <mxCell id="H8-hDgxQh_Dao61tSRxa-16" value="" style="endArrow=none;html=1;rounded=0;exitX=0.001;exitY=0.621;exitDx=0;exitDy=0;exitPerimeter=0;entryX=1.003;entryY=0.622;entryDx=0;entryDy=0;entryPerimeter=0;" edge="1" parent="1" source="H8-hDgxQh_Dao61tSRxa-1" target="H8-hDgxQh_Dao61tSRxa-1">
          <mxGeometry width="50" height="50" relative="1" as="geometry">
            <mxPoint x="350" y="582" as="sourcePoint" />
            <mxPoint x="359" y="616" as="targetPoint" />
          </mxGeometry>
        </mxCell>
        <mxCell id="H8-hDgxQh_Dao61tSRxa-17" value=".bss.stack" style="text;html=1;align=center;verticalAlign=middle;resizable=0;points=[];autosize=1;strokeColor=none;fillColor=none;" vertex="1" parent="1">
          <mxGeometry x="260" y="500" width="80" height="30" as="geometry" />
        </mxCell>
        <mxCell id="H8-hDgxQh_Dao61tSRxa-18" value="..." style="rounded=0;whiteSpace=wrap;html=1;" vertex="1" parent="1">
          <mxGeometry x="400" y="372" width="120" height="180" as="geometry" />
        </mxCell>
        <mxCell id="H8-hDgxQh_Dao61tSRxa-19" value="" style="endArrow=none;html=1;rounded=0;exitX=0.994;exitY=0.38;exitDx=0;exitDy=0;exitPerimeter=0;entryX=0;entryY=0;entryDx=0;entryDy=0;" edge="1" parent="1" source="H8-hDgxQh_Dao61tSRxa-1" target="H8-hDgxQh_Dao61tSRxa-18">
          <mxGeometry width="50" height="50" relative="1" as="geometry">
            <mxPoint x="350" y="542" as="sourcePoint" />
            <mxPoint x="400" y="492" as="targetPoint" />
          </mxGeometry>
        </mxCell>
        <mxCell id="H8-hDgxQh_Dao61tSRxa-20" value="" style="endArrow=none;html=1;rounded=0;exitX=1;exitY=0.5;exitDx=0;exitDy=0;entryX=0;entryY=1;entryDx=0;entryDy=0;" edge="1" parent="1" source="H8-hDgxQh_Dao61tSRxa-1" target="H8-hDgxQh_Dao61tSRxa-18">
          <mxGeometry width="50" height="50" relative="1" as="geometry">
            <mxPoint x="350" y="542" as="sourcePoint" />
            <mxPoint x="400" y="492" as="targetPoint" />
          </mxGeometry>
        </mxCell>
        <mxCell id="H8-hDgxQh_Dao61tSRxa-22" value="boot_stack_lower_bound" style="text;html=1;align=center;verticalAlign=middle;resizable=0;points=[];autosize=1;strokeColor=none;fillColor=none;" vertex="1" parent="1">
          <mxGeometry x="520" y="362" width="160" height="30" as="geometry" />
        </mxCell>
        <mxCell id="H8-hDgxQh_Dao61tSRxa-23" value="" style="endArrow=none;html=1;rounded=0;exitX=1;exitY=0.25;exitDx=0;exitDy=0;entryX=0;entryY=0.25;entryDx=0;entryDy=0;" edge="1" parent="1" source="H8-hDgxQh_Dao61tSRxa-18" target="H8-hDgxQh_Dao61tSRxa-18">
          <mxGeometry width="50" height="50" relative="1" as="geometry">
            <mxPoint x="350" y="542" as="sourcePoint" />
            <mxPoint x="400" y="492" as="targetPoint" />
          </mxGeometry>
        </mxCell>
        <mxCell id="H8-hDgxQh_Dao61tSRxa-24" value="boot_stack_top" style="text;html=1;align=center;verticalAlign=middle;resizable=0;points=[];autosize=1;strokeColor=none;fillColor=none;" vertex="1" parent="1">
          <mxGeometry x="520" y="402" width="100" height="30" as="geometry" />
        </mxCell>
        <mxCell id="H8-hDgxQh_Dao61tSRxa-25" value="boot_stack" style="text;html=1;align=center;verticalAlign=middle;resizable=0;points=[];autosize=1;strokeColor=none;fillColor=none;" vertex="1" parent="1">
          <mxGeometry x="420" y="380" width="80" height="30" as="geometry" />
        </mxCell>
        <mxCell id="H8-hDgxQh_Dao61tSRxa-26" value="..." style="text;html=1;align=center;verticalAlign=middle;resizable=0;points=[];autosize=1;strokeColor=none;fillColor=none;" vertex="1" parent="1">
          <mxGeometry x="285" y="620" width="30" height="30" as="geometry" />
        </mxCell>
        <mxCell id="H8-hDgxQh_Dao61tSRxa-27" value=".text" style="text;html=1;align=center;verticalAlign=middle;resizable=0;points=[];autosize=1;strokeColor=none;fillColor=none;" vertex="1" parent="1">
          <mxGeometry x="275" y="280" width="50" height="30" as="geometry" />
        </mxCell>
        <mxCell id="H8-hDgxQh_Dao61tSRxa-29" value="" style="endArrow=none;html=1;rounded=0;exitX=1;exitY=0.5;exitDx=0;exitDy=0;entryX=0;entryY=0;entryDx=0;entryDy=0;" edge="1" parent="1" source="H8-hDgxQh_Dao61tSRxa-1" target="H8-hDgxQh_Dao61tSRxa-31">
          <mxGeometry width="50" height="50" relative="1" as="geometry">
            <mxPoint x="380" y="562" as="sourcePoint" />
            <mxPoint x="470" y="582" as="targetPoint" />
          </mxGeometry>
        </mxCell>
        <mxCell id="H8-hDgxQh_Dao61tSRxa-30" value="" style="endArrow=none;html=1;rounded=0;exitX=1.002;exitY=0.622;exitDx=0;exitDy=0;exitPerimeter=0;entryX=0;entryY=1;entryDx=0;entryDy=0;" edge="1" parent="1" source="H8-hDgxQh_Dao61tSRxa-1" target="H8-hDgxQh_Dao61tSRxa-31">
          <mxGeometry width="50" height="50" relative="1" as="geometry">
            <mxPoint x="520" y="692" as="sourcePoint" />
            <mxPoint x="410" y="712" as="targetPoint" />
          </mxGeometry>
        </mxCell>
        <mxCell id="H8-hDgxQh_Dao61tSRxa-31" value="" style="rounded=0;whiteSpace=wrap;html=1;" vertex="1" parent="1">
          <mxGeometry x="450" y="592" width="120" height="380" as="geometry" />
        </mxCell>
        <mxCell id="H8-hDgxQh_Dao61tSRxa-33" value="" style="endArrow=none;html=1;rounded=0;exitX=0;exitY=0.25;exitDx=0;exitDy=0;entryX=1;entryY=0.25;entryDx=0;entryDy=0;" edge="1" parent="1" source="H8-hDgxQh_Dao61tSRxa-31" target="H8-hDgxQh_Dao61tSRxa-31">
          <mxGeometry width="50" height="50" relative="1" as="geometry">
            <mxPoint x="550" y="722" as="sourcePoint" />
            <mxPoint x="600" y="672" as="targetPoint" />
          </mxGeometry>
        </mxCell>
        <mxCell id="H8-hDgxQh_Dao61tSRxa-34" value="" style="endArrow=none;html=1;rounded=0;exitX=0;exitY=0.25;exitDx=0;exitDy=0;entryX=1;entryY=0.25;entryDx=0;entryDy=0;" edge="1" parent="1">
          <mxGeometry width="50" height="50" relative="1" as="geometry">
            <mxPoint x="450" y="742" as="sourcePoint" />
            <mxPoint x="570" y="742" as="targetPoint" />
          </mxGeometry>
        </mxCell>
        <mxCell id="H8-hDgxQh_Dao61tSRxa-35" value="" style="endArrow=none;html=1;rounded=0;exitX=0;exitY=0.25;exitDx=0;exitDy=0;entryX=1;entryY=0.25;entryDx=0;entryDy=0;" edge="1" parent="1">
          <mxGeometry width="50" height="50" relative="1" as="geometry">
            <mxPoint x="450" y="822" as="sourcePoint" />
            <mxPoint x="570" y="822" as="targetPoint" />
          </mxGeometry>
        </mxCell>
        <mxCell id="H8-hDgxQh_Dao61tSRxa-36" value="" style="endArrow=none;html=1;rounded=0;exitX=0;exitY=0.25;exitDx=0;exitDy=0;entryX=1;entryY=0.25;entryDx=0;entryDy=0;" edge="1" parent="1">
          <mxGeometry width="50" height="50" relative="1" as="geometry">
            <mxPoint x="450" y="772" as="sourcePoint" />
            <mxPoint x="570" y="772" as="targetPoint" />
          </mxGeometry>
        </mxCell>
        <mxCell id="H8-hDgxQh_Dao61tSRxa-37" value="KERNEL_STACK" style="text;html=1;align=center;verticalAlign=middle;resizable=0;points=[];autosize=1;strokeColor=none;fillColor=none;" vertex="1" parent="1">
          <mxGeometry x="450" y="700" width="120" height="30" as="geometry" />
        </mxCell>
        <mxCell id="H8-hDgxQh_Dao61tSRxa-38" value="USER_STACK" style="text;html=1;align=center;verticalAlign=middle;resizable=0;points=[];autosize=1;strokeColor=none;fillColor=none;" vertex="1" parent="1">
          <mxGeometry x="460" y="782" width="100" height="30" as="geometry" />
        </mxCell>
        <mxCell id="H8-hDgxQh_Dao61tSRxa-40" value="" style="rounded=0;whiteSpace=wrap;html=1;" vertex="1" parent="1">
          <mxGeometry x="660" y="512" width="280" height="190" as="geometry" />
        </mxCell>
        <mxCell id="H8-hDgxQh_Dao61tSRxa-41" value="" style="rounded=0;whiteSpace=wrap;html=1;" vertex="1" parent="1">
          <mxGeometry x="660" y="792" width="280" height="190" as="geometry" />
        </mxCell>
        <mxCell id="H8-hDgxQh_Dao61tSRxa-42" value="" style="endArrow=none;html=1;rounded=0;exitX=1;exitY=0.25;exitDx=0;exitDy=0;entryX=0;entryY=0;entryDx=0;entryDy=0;" edge="1" parent="1" source="H8-hDgxQh_Dao61tSRxa-31" target="H8-hDgxQh_Dao61tSRxa-40">
          <mxGeometry width="50" height="50" relative="1" as="geometry">
            <mxPoint x="640" y="742" as="sourcePoint" />
            <mxPoint x="690" y="692" as="targetPoint" />
          </mxGeometry>
        </mxCell>
        <mxCell id="H8-hDgxQh_Dao61tSRxa-43" value="" style="endArrow=none;html=1;rounded=0;entryX=0;entryY=1;entryDx=0;entryDy=0;" edge="1" parent="1" target="H8-hDgxQh_Dao61tSRxa-40">
          <mxGeometry width="50" height="50" relative="1" as="geometry">
            <mxPoint x="570" y="742" as="sourcePoint" />
            <mxPoint x="700" y="652" as="targetPoint" />
          </mxGeometry>
        </mxCell>
        <mxCell id="H8-hDgxQh_Dao61tSRxa-44" value="" style="endArrow=none;html=1;rounded=0;exitX=0.994;exitY=0.473;exitDx=0;exitDy=0;exitPerimeter=0;entryX=0;entryY=0;entryDx=0;entryDy=0;" edge="1" parent="1" source="H8-hDgxQh_Dao61tSRxa-31" target="H8-hDgxQh_Dao61tSRxa-41">
          <mxGeometry width="50" height="50" relative="1" as="geometry">
            <mxPoint x="580" y="912" as="sourcePoint" />
            <mxPoint x="630" y="862" as="targetPoint" />
          </mxGeometry>
        </mxCell>
        <mxCell id="H8-hDgxQh_Dao61tSRxa-45" value="" style="endArrow=none;html=1;rounded=0;exitX=1.001;exitY=0.606;exitDx=0;exitDy=0;exitPerimeter=0;entryX=0;entryY=1;entryDx=0;entryDy=0;" edge="1" parent="1" source="H8-hDgxQh_Dao61tSRxa-31" target="H8-hDgxQh_Dao61tSRxa-41">
          <mxGeometry width="50" height="50" relative="1" as="geometry">
            <mxPoint x="600" y="842" as="sourcePoint" />
            <mxPoint x="640" y="852" as="targetPoint" />
          </mxGeometry>
        </mxCell>
        <mxCell id="H8-hDgxQh_Dao61tSRxa-46" value="" style="endArrow=none;html=1;rounded=0;exitX=0;exitY=0.25;exitDx=0;exitDy=0;" edge="1" parent="1" target="H8-hDgxQh_Dao61tSRxa-40">
          <mxGeometry width="50" height="50" relative="1" as="geometry">
            <mxPoint x="660" y="542" as="sourcePoint" />
            <mxPoint x="780" y="542" as="targetPoint" />
          </mxGeometry>
        </mxCell>
        <mxCell id="H8-hDgxQh_Dao61tSRxa-47" value="" style="endArrow=none;html=1;rounded=0;exitX=0;exitY=0.25;exitDx=0;exitDy=0;entryX=1;entryY=0.25;entryDx=0;entryDy=0;" edge="1" parent="1">
          <mxGeometry width="50" height="50" relative="1" as="geometry">
            <mxPoint x="450" y="687" as="sourcePoint" />
            <mxPoint x="570" y="687" as="targetPoint" />
          </mxGeometry>
        </mxCell>
        <mxCell id="H8-hDgxQh_Dao61tSRxa-48" value="" style="endArrow=none;html=1;rounded=0;exitX=0;exitY=0.25;exitDx=0;exitDy=0;" edge="1" parent="1" target="H8-hDgxQh_Dao61tSRxa-41">
          <mxGeometry width="50" height="50" relative="1" as="geometry">
            <mxPoint x="660" y="822" as="sourcePoint" />
            <mxPoint x="780" y="822" as="targetPoint" />
          </mxGeometry>
        </mxCell>
        <mxCell id="H8-hDgxQh_Dao61tSRxa-49" value="KernelStack Size = KERNEL_STACK_SIZE" style="text;html=1;align=center;verticalAlign=middle;resizable=0;points=[];autosize=1;strokeColor=none;fillColor=none;" vertex="1" parent="1">
          <mxGeometry x="670" y="522" width="260" height="30" as="geometry" />
        </mxCell>
        <mxCell id="H8-hDgxQh_Dao61tSRxa-51" value="UserStack Size =&amp;nbsp;USER_STACK_SIZE&lt;span style=&quot;font-family: monospace; font-size: 0px; text-align: start;&quot;&gt;%3CmxGraphModel%3E%3Croot%3E%3CmxCell%20id%3D%220%22%2F%3E%3CmxCell%20id%3D%221%22%20parent%3D%220%22%2F%3E%3CmxCell%20id%3D%222%22%20value%3D%22%22%20style%3D%22endArrow%3Dnone%3Bhtml%3D1%3Brounded%3D0%3BexitX%3D0%3BexitY%3D0.25%3BexitDx%3D0%3BexitDy%3D0%3BentryX%3D1%3BentryY%3D0.25%3BentryDx%3D0%3BentryDy%3D0%3B%22%20edge%3D%221%22%20parent%3D%221%22%3E%3CmxGeometry%20width%3D%2250%22%20height%3D%2250%22%20relative%3D%221%22%20as%3D%22geometry%22%3E%3CmxPoint%20x%3D%22560%22%20y%3D%22398%22%20as%3D%22sourcePoint%22%2F%3E%3CmxPoint%20x%3D%22770%22%20y%3D%22398%22%20as%3D%22targetPoint%22%2F%3E%3C%2FmxGeometry%3E%3C%2FmxCell%3E%3C%2Froot%3E%3C%2FmxGraphModel%3E&lt;/span&gt;" style="text;html=1;align=center;verticalAlign=middle;resizable=0;points=[];autosize=1;strokeColor=none;fillColor=none;" vertex="1" parent="1">
          <mxGeometry x="680" y="802" width="230" height="30" as="geometry" />
        </mxCell>
        <mxCell id="H8-hDgxQh_Dao61tSRxa-52" value="total=MAX_APP_NUM" style="text;html=1;align=center;verticalAlign=middle;resizable=0;points=[];autosize=1;strokeColor=none;fillColor=none;" vertex="1" parent="1">
          <mxGeometry x="730" y="622" width="140" height="30" as="geometry" />
        </mxCell>
        <mxCell id="H8-hDgxQh_Dao61tSRxa-53" value="total=MAX_APP_NUM" style="text;html=1;align=center;verticalAlign=middle;resizable=0;points=[];autosize=1;strokeColor=none;fillColor=none;" vertex="1" parent="1">
          <mxGeometry x="725" y="902" width="140" height="30" as="geometry" />
        </mxCell>
        <mxCell id="H8-hDgxQh_Dao61tSRxa-54" value="" style="endArrow=none;html=1;rounded=0;exitX=0;exitY=0.25;exitDx=0;exitDy=0;entryX=1;entryY=0.25;entryDx=0;entryDy=0;" edge="1" parent="1" source="H8-hDgxQh_Dao61tSRxa-40" target="H8-hDgxQh_Dao61tSRxa-40">
          <mxGeometry width="50" height="50" relative="1" as="geometry">
            <mxPoint x="730" y="612" as="sourcePoint" />
            <mxPoint x="780" y="562" as="targetPoint" />
          </mxGeometry>
        </mxCell>
        <mxCell id="H8-hDgxQh_Dao61tSRxa-57" value="" style="endArrow=none;html=1;rounded=0;exitX=0;exitY=0.25;exitDx=0;exitDy=0;entryX=1;entryY=0.25;entryDx=0;entryDy=0;" edge="1" parent="1">
          <mxGeometry width="50" height="50" relative="1" as="geometry">
            <mxPoint x="660" y="842" as="sourcePoint" />
            <mxPoint x="940" y="842" as="targetPoint" />
          </mxGeometry>
        </mxCell>
        <mxCell id="H8-hDgxQh_Dao61tSRxa-59" value="" style="rounded=0;whiteSpace=wrap;html=1;" vertex="1" parent="1">
          <mxGeometry x="1070" y="400" width="120" height="220" as="geometry" />
        </mxCell>
        <mxCell id="H8-hDgxQh_Dao61tSRxa-60" value="" style="endArrow=none;html=1;rounded=0;exitX=1;exitY=0;exitDx=0;exitDy=0;entryX=0;entryY=0;entryDx=0;entryDy=0;" edge="1" parent="1" source="H8-hDgxQh_Dao61tSRxa-40" target="H8-hDgxQh_Dao61tSRxa-59">
          <mxGeometry width="50" height="50" relative="1" as="geometry">
            <mxPoint x="840" y="430" as="sourcePoint" />
            <mxPoint x="1000" y="370" as="targetPoint" />
          </mxGeometry>
        </mxCell>
        <mxCell id="H8-hDgxQh_Dao61tSRxa-61" value="" style="endArrow=none;html=1;rounded=0;exitX=1;exitY=0.25;exitDx=0;exitDy=0;entryX=0;entryY=1;entryDx=0;entryDy=0;" edge="1" parent="1" source="H8-hDgxQh_Dao61tSRxa-40" target="H8-hDgxQh_Dao61tSRxa-59">
          <mxGeometry width="50" height="50" relative="1" as="geometry">
            <mxPoint x="920" y="540" as="sourcePoint" />
            <mxPoint x="970" y="490" as="targetPoint" />
          </mxGeometry>
        </mxCell>
        <mxCell id="H8-hDgxQh_Dao61tSRxa-63" value="" style="endArrow=none;html=1;rounded=0;exitX=0;exitY=0.75;exitDx=0;exitDy=0;entryX=1;entryY=0.75;entryDx=0;entryDy=0;" edge="1" parent="1" source="H8-hDgxQh_Dao61tSRxa-59" target="H8-hDgxQh_Dao61tSRxa-59">
          <mxGeometry width="50" height="50" relative="1" as="geometry">
            <mxPoint x="920" y="540" as="sourcePoint" />
            <mxPoint x="970" y="490" as="targetPoint" />
          </mxGeometry>
        </mxCell>
        <mxCell id="H8-hDgxQh_Dao61tSRxa-64" value="TrapContext" style="text;html=1;align=center;verticalAlign=middle;resizable=0;points=[];autosize=1;strokeColor=none;fillColor=none;" vertex="1" parent="1">
          <mxGeometry x="1085" y="580" width="90" height="30" as="geometry" />
        </mxCell>
        <mxCell id="H8-hDgxQh_Dao61tSRxa-65" value="" style="rounded=0;whiteSpace=wrap;html=1;" vertex="1" parent="1">
          <mxGeometry x="400" y="-460" width="120" height="722" as="geometry" />
        </mxCell>
        <mxCell id="H8-hDgxQh_Dao61tSRxa-66" value="" style="endArrow=none;html=1;rounded=0;exitX=1;exitY=0;exitDx=0;exitDy=0;entryX=0;entryY=0;entryDx=0;entryDy=0;" edge="1" parent="1" source="H8-hDgxQh_Dao61tSRxa-1" target="H8-hDgxQh_Dao61tSRxa-65">
          <mxGeometry width="50" height="50" relative="1" as="geometry">
            <mxPoint x="360" y="260" as="sourcePoint" />
            <mxPoint x="340" y="140" as="targetPoint" />
          </mxGeometry>
        </mxCell>
        <mxCell id="H8-hDgxQh_Dao61tSRxa-67" value="" style="endArrow=none;html=1;rounded=0;exitX=0.999;exitY=0.113;exitDx=0;exitDy=0;exitPerimeter=0;entryX=0;entryY=1;entryDx=0;entryDy=0;" edge="1" parent="1" source="H8-hDgxQh_Dao61tSRxa-1" target="H8-hDgxQh_Dao61tSRxa-65">
          <mxGeometry width="50" height="50" relative="1" as="geometry">
            <mxPoint x="370" y="320" as="sourcePoint" />
            <mxPoint x="380" y="350" as="targetPoint" />
          </mxGeometry>
        </mxCell>
        <mxCell id="H8-hDgxQh_Dao61tSRxa-69" value="" style="endArrow=none;html=1;rounded=0;exitX=0.005;exitY=0.129;exitDx=0;exitDy=0;exitPerimeter=0;entryX=0.995;entryY=0.13;entryDx=0;entryDy=0;entryPerimeter=0;" edge="1" parent="1" source="H8-hDgxQh_Dao61tSRxa-65" target="H8-hDgxQh_Dao61tSRxa-65">
          <mxGeometry width="50" height="50" relative="1" as="geometry">
            <mxPoint x="510" y="-270" as="sourcePoint" />
            <mxPoint x="560" y="-320" as="targetPoint" />
          </mxGeometry>
        </mxCell>
        <mxCell id="H8-hDgxQh_Dao61tSRxa-70" value="" style="endArrow=none;html=1;rounded=0;exitX=0.005;exitY=0.129;exitDx=0;exitDy=0;exitPerimeter=0;entryX=1.004;entryY=0.192;entryDx=0;entryDy=0;entryPerimeter=0;" edge="1" parent="1" target="H8-hDgxQh_Dao61tSRxa-65">
          <mxGeometry width="50" height="50" relative="1" as="geometry">
            <mxPoint x="400" y="-320" as="sourcePoint" />
            <mxPoint x="518" y="-319" as="targetPoint" />
          </mxGeometry>
        </mxCell>
        <mxCell id="H8-hDgxQh_Dao61tSRxa-71" value="link_app.S" style="text;html=1;align=center;verticalAlign=middle;resizable=0;points=[];autosize=1;strokeColor=none;fillColor=none;" vertex="1" parent="1">
          <mxGeometry x="420" y="-360" width="80" height="30" as="geometry" />
        </mxCell>
        <mxCell id="H8-hDgxQh_Dao61tSRxa-72" value="0x80400000" style="text;html=1;align=center;verticalAlign=middle;resizable=0;points=[];autosize=1;strokeColor=none;fillColor=none;" vertex="1" parent="1">
          <mxGeometry x="140" y="660" width="90" height="30" as="geometry" />
        </mxCell>
        <mxCell id="H8-hDgxQh_Dao61tSRxa-73" value="" style="endArrow=none;html=1;rounded=0;exitX=0.003;exitY=0.723;exitDx=0;exitDy=0;exitPerimeter=0;entryX=1;entryY=0.723;entryDx=0;entryDy=0;entryPerimeter=0;" edge="1" parent="1" source="H8-hDgxQh_Dao61tSRxa-1" target="H8-hDgxQh_Dao61tSRxa-1">
          <mxGeometry width="50" height="50" relative="1" as="geometry">
            <mxPoint x="300" y="700" as="sourcePoint" />
            <mxPoint x="350" y="650" as="targetPoint" />
          </mxGeometry>
        </mxCell>
        <mxCell id="H8-hDgxQh_Dao61tSRxa-75" value="user_load_apps" style="text;html=1;align=center;verticalAlign=middle;resizable=0;points=[];autosize=1;strokeColor=none;fillColor=none;" vertex="1" parent="1">
          <mxGeometry x="245" y="702" width="110" height="30" as="geometry" />
        </mxCell>
        <mxCell id="H8-hDgxQh_Dao61tSRxa-78" value="total=_num_app" style="text;html=1;align=center;verticalAlign=middle;resizable=0;points=[];autosize=1;strokeColor=none;fillColor=none;" vertex="1" parent="1">
          <mxGeometry x="455" y="1160" width="110" height="30" as="geometry" />
        </mxCell>
        <mxCell id="H8-hDgxQh_Dao61tSRxa-79" value="" style="endArrow=none;html=1;rounded=0;exitX=0;exitY=0.5;exitDx=0;exitDy=0;entryX=1;entryY=0.5;entryDx=0;entryDy=0;" edge="1" parent="1">
          <mxGeometry width="50" height="50" relative="1" as="geometry">
            <mxPoint x="240" y="760" as="sourcePoint" />
            <mxPoint x="360" y="760" as="targetPoint" />
          </mxGeometry>
        </mxCell>
        <mxCell id="H8-hDgxQh_Dao61tSRxa-81" style="edgeStyle=orthogonalEdgeStyle;rounded=0;orthogonalLoop=1;jettySize=auto;html=1;exitX=0.5;exitY=1;exitDx=0;exitDy=0;" edge="1" parent="1" source="H8-hDgxQh_Dao61tSRxa-31" target="H8-hDgxQh_Dao61tSRxa-31">
          <mxGeometry relative="1" as="geometry" />
        </mxCell>
        <mxCell id="H8-hDgxQh_Dao61tSRxa-83" value="" style="endArrow=none;html=1;rounded=0;exitX=1.003;exitY=0.724;exitDx=0;exitDy=0;exitPerimeter=0;entryX=0;entryY=0;entryDx=0;entryDy=0;" edge="1" parent="1" source="H8-hDgxQh_Dao61tSRxa-1" target="H8-hDgxQh_Dao61tSRxa-82">
          <mxGeometry width="50" height="50" relative="1" as="geometry">
            <mxPoint x="369.76" y="679.63" as="sourcePoint" />
            <mxPoint x="460" y="754.38" as="targetPoint" />
          </mxGeometry>
        </mxCell>
        <mxCell id="H8-hDgxQh_Dao61tSRxa-84" value="" style="endArrow=none;html=1;rounded=0;exitX=1.001;exitY=0.875;exitDx=0;exitDy=0;exitPerimeter=0;" edge="1" parent="1" source="H8-hDgxQh_Dao61tSRxa-1">
          <mxGeometry width="50" height="50" relative="1" as="geometry">
            <mxPoint x="370" y="740" as="sourcePoint" />
            <mxPoint x="450" y="1210" as="targetPoint" />
          </mxGeometry>
        </mxCell>
        <mxCell id="H8-hDgxQh_Dao61tSRxa-88" value="..." style="text;html=1;align=center;verticalAlign=middle;resizable=0;points=[];autosize=1;strokeColor=none;fillColor=none;" vertex="1" parent="1">
          <mxGeometry x="495" y="1130" width="30" height="30" as="geometry" />
        </mxCell>
        <mxCell id="H8-hDgxQh_Dao61tSRxa-89" value="" style="endArrow=none;html=1;rounded=0;entryX=0;entryY=0.25;entryDx=0;entryDy=0;exitX=1;exitY=0.25;exitDx=0;exitDy=0;" edge="1" parent="1" source="H8-hDgxQh_Dao61tSRxa-82" target="H8-hDgxQh_Dao61tSRxa-82">
          <mxGeometry width="50" height="50" relative="1" as="geometry">
            <mxPoint x="590" y="1122.5" as="sourcePoint" />
            <mxPoint x="470" y="1090" as="targetPoint" />
          </mxGeometry>
        </mxCell>
        <mxCell id="H8-hDgxQh_Dao61tSRxa-90" value="APP1 Size = 0x20000" style="text;html=1;align=center;verticalAlign=middle;resizable=0;points=[];autosize=1;strokeColor=none;fillColor=none;" vertex="1" parent="1">
          <mxGeometry x="440" y="1060" width="140" height="30" as="geometry" />
        </mxCell>
      </root>
    </mxGraphModel>
  </diagram>
</mxfile>
